<?xml version="1.0" encoding="utf-8"?>
<!-- Generator: Adobe Illustrator 18.0.0, SVG Export Plug-In . SVG Version: 6.00 Build 0)  -->
<!DOCTYPE svg PUBLIC "-//W3C//DTD SVG 1.1//EN" "http://www.w3.org/Graphics/SVG/1.1/DTD/svg11.dtd">
<svg version="1.1" id="Icon_Set" xmlns="http://www.w3.org/2000/svg" xmlns:xlink="http://www.w3.org/1999/xlink" x="0px" y="0px"
	 viewBox="0 0 512 512" style="enable-background:new 0 0 512 512;" xml:space="preserve">
<style type="text/css">
	.st0{fill:#F0C48A;}
	.st1{fill:#FD919E;}
	.st2{fill:#E8677D;}
	.st3{fill:#4C4372;}
	.st4{fill:#D3E6F8;}
	.st5{fill:#A4CFF2;}
	.st6{fill:#FFFFFF;}
	.st7{fill:#7BABF1;}
</style>
<g>
	<circle class="st0" cx="256" cy="256" r="207"/>
	<g>
		<g>
			<rect x="207.823" y="344.331" class="st1" width="96.355" height="76.154"/>
		</g>
		<g>
			<rect x="268.094" y="345.964" class="st2" width="35.964" height="68.623"/>
		</g>
		<g>
			<rect x="165.726" y="420.484" class="st2" width="180.549" height="43.532"/>
		</g>
		<g>
			<path class="st4" d="M477.523,344.331H34.477c-15.804,0-28.615-12.811-28.615-28.615V76.598
				c0-15.803,12.811-28.615,28.615-28.615h443.045c15.803,0,28.615,12.811,28.615,28.615v239.117
				C506.137,331.519,493.326,344.331,477.523,344.331z"/>
		</g>
		<g>
			<path class="st5" d="M472.178,344.331h-5.103V51.024h5.103c17.044,0,30.861,13.817,30.861,30.861v231.584
				C503.039,330.514,489.222,344.331,472.178,344.331z"/>
		</g>
		<g>
			<rect x="39.23" y="85.847" class="st6" width="433.54" height="220.621"/>
		</g>
		<g>
			<rect x="433.966" y="87.268" class="st4" width="35.964" height="219.2"/>
		</g>
		<g>
			<path class="st3" d="M477.522,350.194H34.478C15.467,350.194,0,334.727,0,315.716V76.598c0-19.01,15.467-34.477,34.478-34.477
				h443.045c19.011,0,34.478,15.467,34.478,34.477v239.117C512,334.727,496.533,350.194,477.522,350.194z M34.478,53.846
				c-12.546,0-22.752,10.206-22.752,22.752v239.117c0,12.546,10.207,22.753,22.752,22.753h443.045
				c12.546,0,22.752-10.207,22.752-22.753V76.598c0-12.546-10.207-22.752-22.752-22.752H34.478z"/>
		</g>
		<g>
			<path class="st3" d="M472.77,312.33H39.23c-3.238,0-5.863-2.625-5.863-5.863V85.846c0-3.238,2.625-5.863,5.863-5.863h433.54
				c3.238,0,5.863,2.625,5.863,5.863v220.621C478.633,309.705,476.008,312.33,472.77,312.33z M45.093,300.605h421.815V91.709H45.093
				V300.605z"/>
		</g>
		<g>
			<path class="st3" d="M304.177,426.347h-96.355c-3.238,0-5.863-2.625-5.863-5.863v-76.154c0-3.238,2.625-5.863,5.863-5.863h96.355
				c3.238,0,5.863,2.625,5.863,5.863v76.154C310.04,423.722,307.415,426.347,304.177,426.347z M213.685,414.622h84.63v-64.428
				h-84.63V414.622z"/>
		</g>
		<g>
			<path class="st3" d="M346.274,469.879H165.726c-3.238,0-5.863-2.625-5.863-5.863v-43.531c0-3.238,2.625-5.863,5.863-5.863
				h180.549c3.238,0,5.863,2.625,5.863,5.863v43.531C352.137,467.254,349.512,469.879,346.274,469.879z M171.588,458.154h168.823
				v-31.806H171.588V458.154z"/>
		</g>
		<g>
			<path class="st3" d="M230.007,148.152c0.102-9.452,2.466-17.979,6.986-24.555c4.315-6.575,10.993-11.405,19.109-11.405
				c7.912,0,14.692,4.829,19.007,11.405c4.417,6.575,6.884,15.103,6.884,24.555c0,9.35-2.466,17.98-6.884,24.555
				c-4.315,6.472-11.096,11.404-19.007,11.404c-8.116,0-14.795-4.932-19.109-11.404
				C232.473,166.132,230.109,157.502,230.007,148.152z M270.589,148.152c0-7.397-2.055-13.87-4.932-18.288
				c-2.98-4.315-6.37-6.37-9.555-6.267c-3.185-0.103-6.678,1.952-9.76,6.267c-2.877,4.418-4.932,10.89-4.932,18.288
				c0,7.295,2.054,13.87,4.932,18.185c3.082,4.418,6.575,6.37,9.76,6.37c3.185,0,6.575-1.952,9.555-6.37
				C268.534,162.023,270.589,155.447,270.589,148.152z"/>
		</g>
		<g>
			<path class="st3" d="M268.056,207.418v60.616c0,3.186-2.672,5.651-5.753,5.651c-3.185,0-5.651-2.465-5.651-5.651v-50.547
				l-4.11,2.362c-0.924,0.617-1.952,0.823-2.876,0.823c-1.952,0-3.801-1.027-4.829-2.877c-1.746-2.568-0.822-6.165,1.85-7.706
				l12.637-7.5c0.102-0.103,0.308-0.103,0.411-0.206c0.205,0,0.308-0.205,0.514-0.308c0.205,0,0.411-0.102,0.617-0.102
				c0.103-0.103,0.308-0.103,0.411-0.103c0.206-0.103,0.514-0.103,0.72-0.103c0.102,0,0.205,0,0.308,0h0.102c0.308,0,0.514,0,0.72,0
				c0.102,0.103,0.308,0.103,0.411,0.103c0.308,0,0.411,0.103,0.617,0.205c0.103,0,0.308,0,0.411,0.103
				c0.308,0.205,0.411,0.308,0.617,0.308c0.103,0.103,0.205,0.205,0.411,0.308c0.102,0.102,0.308,0.205,0.411,0.308
				c0.205,0.102,0.308,0.308,0.411,0.411c0.102,0.103,0.205,0.205,0.308,0.411c0.103,0.102,0.308,0.308,0.411,0.411l0.103,0.205
				c0,0.103,0.102,0.206,0.102,0.308c0.103,0.205,0.206,0.308,0.206,0.514c0.102,0.206,0.102,0.411,0.205,0.514
				c0,0.205,0.102,0.411,0.102,0.514c0,0.308,0,0.514,0.206,0.719C268.056,207.212,268.056,207.315,268.056,207.418z"/>
		</g>
		<g>
			<g>
				<path class="st3" d="M169.936,117.844v60.617c0,3.185-2.672,5.65-5.753,5.65c-3.185,0-5.651-2.466-5.651-5.65v-50.549
					l-4.11,2.363c-0.924,0.617-1.952,0.823-2.876,0.823c-1.952,0-3.801-1.028-4.829-2.877c-1.746-2.569-0.822-6.165,1.85-7.706
					l12.637-7.5c0.102-0.103,0.308-0.103,0.411-0.206c0.205,0,0.308-0.205,0.514-0.308c0.205,0,0.411-0.102,0.617-0.102
					c0.103-0.103,0.308-0.103,0.411-0.103c0.206-0.103,0.514-0.103,0.72-0.103c0.102,0,0.205,0,0.308,0h0.102
					c0.308,0,0.514,0,0.72,0c0.102,0.103,0.308,0.103,0.411,0.103c0.308,0,0.411,0.103,0.617,0.205c0.103,0,0.308,0,0.411,0.103
					c0.308,0.205,0.411,0.308,0.617,0.308c0.103,0.103,0.205,0.205,0.411,0.308c0.102,0.102,0.308,0.205,0.411,0.308
					c0.205,0.102,0.308,0.308,0.411,0.411c0.102,0.103,0.205,0.205,0.308,0.411c0.103,0.102,0.308,0.308,0.411,0.411l0.103,0.205
					c0,0.103,0.102,0.206,0.102,0.308c0.103,0.205,0.206,0.308,0.206,0.514c0.102,0.206,0.102,0.411,0.205,0.514
					c0,0.205,0.102,0.411,0.102,0.514c0,0.308,0,0.514,0.206,0.719C169.936,117.639,169.936,117.741,169.936,117.844z"/>
			</g>
			<g>
				<path class="st3" d="M366.175,117.844v60.617c0,3.185-2.671,5.65-5.754,5.65c-3.185,0-5.65-2.466-5.65-5.65v-50.549l-4.11,2.363
					c-0.924,0.617-1.952,0.823-2.877,0.823c-1.951,0-3.801-1.028-4.828-2.877c-1.747-2.569-0.821-6.165,1.85-7.706l12.637-7.5
					c0.103-0.103,0.308-0.103,0.411-0.206c0.206,0,0.308-0.205,0.514-0.308c0.206,0,0.411-0.102,0.617-0.102
					c0.103-0.103,0.308-0.103,0.411-0.103c0.206-0.103,0.514-0.103,0.72-0.103c0.103,0,0.206,0,0.308,0h0.103
					c0.309,0,0.514,0,0.72,0c0.103,0.103,0.308,0.103,0.411,0.103c0.308,0,0.411,0.103,0.617,0.205c0.103,0,0.308,0,0.411,0.103
					c0.309,0.205,0.411,0.308,0.617,0.308c0.103,0.103,0.206,0.205,0.411,0.308c0.103,0.102,0.309,0.205,0.412,0.308
					c0.205,0.102,0.308,0.308,0.411,0.411c0.103,0.103,0.205,0.205,0.308,0.411c0.103,0.102,0.309,0.308,0.411,0.411l0.103,0.205
					c0,0.103,0.103,0.206,0.103,0.308c0.103,0.205,0.206,0.308,0.206,0.514c0.103,0.206,0.103,0.411,0.205,0.514
					c0,0.205,0.103,0.411,0.103,0.514c0,0.308,0,0.514,0.206,0.719C366.175,117.639,366.175,117.741,366.175,117.844z"/>
			</g>
			<g>
				<path class="st3" d="M131.887,237.727c0.102-9.452,2.466-17.981,6.986-24.556c4.315-6.575,10.993-11.404,19.109-11.404
					c7.911,0,14.692,4.829,19.007,11.404c4.418,6.575,6.884,15.104,6.884,24.556c0,9.349-2.466,17.979-6.884,24.555
					c-4.315,6.472-11.096,11.404-19.007,11.404c-8.116,0-14.795-4.931-19.109-11.404
					C134.353,255.706,131.99,247.076,131.887,237.727z M172.47,237.727c0-7.398-2.055-13.87-4.931-18.288
					c-2.98-4.315-6.37-6.369-9.555-6.268c-3.185-0.102-6.678,1.953-9.76,6.268c-2.877,4.418-4.932,10.89-4.932,18.288
					c0,7.294,2.055,13.869,4.932,18.184c3.082,4.418,6.575,6.371,9.76,6.371c3.185,0,6.575-1.953,9.555-6.371
					C170.415,251.596,172.47,245.02,172.47,237.727z"/>
			</g>
			<g>
				<path class="st3" d="M328.126,237.727c0.103-9.452,2.465-17.981,6.986-24.556c4.315-6.575,10.993-11.404,19.109-11.404
					c7.911,0,14.691,4.829,19.008,11.404c4.417,6.575,6.883,15.104,6.883,24.556c0,9.349-2.466,17.979-6.883,24.555
					c-4.316,6.472-11.096,11.404-19.008,11.404c-8.116,0-14.795-4.931-19.109-11.404
					C330.591,255.706,328.229,247.076,328.126,237.727z M368.709,237.727c0-7.398-2.055-13.87-4.931-18.288
					c-2.98-4.315-6.371-6.369-9.555-6.268c-3.185-0.102-6.678,1.953-9.76,6.268c-2.877,4.418-4.931,10.89-4.931,18.288
					c0,7.294,2.055,13.869,4.931,18.184c3.082,4.418,6.575,6.371,9.76,6.371c3.185,0,6.575-1.953,9.555-6.371
					C366.654,251.596,368.709,245.02,368.709,237.727z"/>
			</g>
		</g>
	</g>
</g>
</svg>
