<svg xmlns="http://www.w3.org/2000/svg" viewBox="0 0 48 48"><defs><style>.cls-1{fill:#42a5f5;}.cls-2{fill:#424242;}</style></defs><title>Binary Code</title><g id="Binary_Code" data-name="Binary Code"><path class="cls-1" d="M33,46H15a1,1,0,0,1,0-2h1.22l1-4H30.78l1,4H33A1,1,0,0,1,33,46Z"/><path class="cls-2" d="M45,2H3A3,3,0,0,0,0,5V35a3,3,0,0,0,3,3H45a3,3,0,0,0,3-3V5A3,3,0,0,0,45,2ZM3,4H45a1,1,0,0,1,1,1V28H2V5A1,1,0,0,1,3,4ZM45,36H3a1,1,0,0,1-1-1V30H46v5A1,1,0,0,1,45,36Z"/><path class="cls-1" d="M25,33a1,1,0,0,1-2,0A1,1,0,0,1,25,33Z"/><path class="cls-1" d="M8,7a3,3,0,0,0-3,3v2a3,3,0,0,0,6,0V10A3,3,0,0,0,8,7Zm1,5a1,1,0,0,1-2,0V10a1,1,0,0,1,2,0Z"/><path class="cls-1" d="M8,17a3,3,0,0,0-3,3v2a3,3,0,0,0,6,0V20A3,3,0,0,0,8,17Zm1,5a1,1,0,0,1-2,0V20a1,1,0,0,1,2,0Z"/><path class="cls-1" d="M32,17a3,3,0,0,0-3,3v2a3,3,0,0,0,6,0V20A3,3,0,0,0,32,17Zm1,5a1,1,0,0,1-2,0V20a1,1,0,0,1,2,0Z"/><path class="cls-1" d="M20,17a3,3,0,0,0-3,3v2a3,3,0,0,0,6,0V20A3,3,0,0,0,20,17Zm1,5a1,1,0,0,1-2,0V20a1,1,0,0,1,2,0Z"/><path class="cls-1" d="M36,7a3,3,0,0,0-3,3v2a3,3,0,0,0,6,0V10A3,3,0,0,0,36,7Zm1,5a1,1,0,0,1-2,0V10a1,1,0,0,1,2,0Z"/><path class="cls-1" d="M24,7a3,3,0,0,0-3,3v2a3,3,0,0,0,6,0V10A3,3,0,0,0,24,7Zm1,5a1,1,0,0,1-2,0V10a1,1,0,0,1,2,0Z"/><path class="cls-1" d="M13,8v6a1,1,0,0,0,2,0V8A1,1,0,0,0,13,8Z"/><path class="cls-1" d="M19,14V8a1,1,0,0,0-2,0v6A1,1,0,0,0,19,14Z"/><path class="cls-1" d="M13,18v6a1,1,0,0,0,2,0V18A1,1,0,0,0,13,18Z"/><path class="cls-1" d="M31,14V8a1,1,0,0,0-2,0v6A1,1,0,0,0,31,14Z"/><path class="cls-1" d="M37,18v6a1,1,0,0,0,2,0V18A1,1,0,0,0,37,18Z"/><path class="cls-1" d="M41,18v6a1,1,0,0,0,2,0V18A1,1,0,0,0,41,18Z"/><path class="cls-1" d="M41,8v6a1,1,0,0,0,2,0V8A1,1,0,0,0,41,8Z"/><path class="cls-1" d="M25,18v6a1,1,0,0,0,2,0V18A1,1,0,0,0,25,18Z"/></g></svg>