<?xml version="1.0" encoding="UTF-8"?>
<!DOCTYPE svg PUBLIC "-//W3C//DTD SVG 1.1//EN" "http://www.w3.org/Graphics/SVG/1.1/DTD/svg11.dtd">
<!-- Creator: CorelDRAW -->
<svg xmlns="http://www.w3.org/2000/svg" xml:space="preserve" width="2048px" height="2048px" style="shape-rendering:geometricPrecision; text-rendering:geometricPrecision; image-rendering:optimizeQuality; fill-rule:evenodd; clip-rule:evenodd"
viewBox="0 0 2048 2048"
 xmlns:xlink="http://www.w3.org/1999/xlink">
 <defs>
  <style type="text/css">
   <![CDATA[
    .fil2 {fill:none}
    .fil5 {fill:#00695C}
    .fil1 {fill:#F06292}
    .fil0 {fill:#F48FB1}
    .fil4 {fill:#FDD835}
    .fil3 {fill:#FFE0B2}
   ]]>
  </style>
   <clipPath id="id0">
    <path d="M1024 -0.0011811c565.541,0 1024,458.461 1024,1024 0,565.541 -458.461,1024 -1024,1024 -565.541,0 -1024,-458.461 -1024,-1024 0,-565.541 458.461,-1024 1024,-1024z"/>
   </clipPath>
 </defs>
 <g id="Layer_x0020_1">
  <metadata id="CorelCorpID_0Corel-Layer"/>
  <path class="fil0" d="M1024 -0.0011811c565.541,0 1024,458.461 1024,1024 0,565.541 -458.461,1024 -1024,1024 -565.541,0 -1024,-458.461 -1024,-1024 0,-565.541 458.461,-1024 1024,-1024z"/>
  <g style="clip-path:url(#id0)">
   <g id="_385664104">
    <g>
     <polygon id="_2755041441" class="fil1" points="1431.05,482.363 2566.93,1618.24 2568.43,1620.15 2569.84,1622.12 2571.15,1624.17 2572.37,1626.28 2573.48,1628.45 2574.49,1630.68 2575.4,1632.97 2576.19,1635.31 2576.87,1637.7 2577.44,1640.13 2577.88,1642.61 2578.2,1645.13 2578.4,1647.68 2578.46,1650.27 1442.58,514.383 1442.52,511.797 1442.32,509.243 1442,506.726 1441.55,504.248 1440.99,501.814 1440.31,499.425 1439.51,497.085 1438.61,494.798 1437.6,492.567 1436.48,490.395 1435.27,488.286 1433.96,486.241 1432.55,484.265 "/>
     <polygon id="_275504216" class="fil1" points="1442.58,514.383 2578.46,1650.27 2578.46,2566.54 1442.58,1430.66 "/>
     <polygon id="_275505224" class="fil1" points="1442.58,1430.66 2578.46,2566.54 2578.4,2569.13 2578.2,2571.68 2577.88,2574.2 2577.44,2576.67 2576.87,2579.11 2576.19,2581.5 2575.4,2583.84 2574.49,2586.12 2573.48,2588.36 2572.36,2590.53 2571.15,2592.64 2569.84,2594.68 2568.43,2596.66 2566.93,2598.56 2565.35,2600.39 2563.68,2602.14 1427.8,1466.26 1429.47,1464.51 1431.05,1462.68 1432.55,1460.78 1433.96,1458.8 1435.27,1456.76 1436.48,1454.65 1437.6,1452.47 1438.61,1450.24 1439.51,1447.96 1440.31,1445.62 1440.99,1443.23 1441.55,1440.79 1442,1438.32 1442.32,1435.8 1442.52,1433.25 "/>
     <polygon id="_275505248" class="fil1" points="1427.8,1466.26 2563.68,2602.14 2561.93,2603.81 2560.1,2605.4 2558.2,2606.89 2556.22,2608.3 2554.18,2609.61 2552.07,2610.83 2549.89,2611.94 2547.66,2612.95 2545.38,2613.86 2543.04,2614.65 2540.65,2615.33 2538.21,2615.9 2535.74,2616.34 2533.22,2616.66 2530.67,2616.86 2528.08,2616.92 1392.2,1481.04 1394.78,1480.97 1397.34,1480.78 1399.86,1480.46 1402.33,1480.01 1404.77,1479.45 1407.16,1478.77 1409.5,1477.97 1411.78,1477.07 1414.01,1476.06 1416.19,1474.94 1418.3,1473.73 1420.34,1472.42 1422.32,1471.01 1424.22,1469.51 1426.05,1467.93 "/>
     <polygon id="_275504984" class="fil1" points="1392.2,1481.04 2528.08,2616.92 2519.63,2616.92 1383.75,1481.04 "/>
     <polygon id="_275505968" class="fil1" points="1383.75,1481.04 2519.63,2616.92 2519.63,2667.42 1383.75,1531.54 "/>
     <polygon id="_275505704" class="fil1" points="1383.75,1531.54 2519.63,2667.42 2519.56,2670.12 2519.36,2672.78 2519.02,2675.4 2518.56,2677.98 2517.97,2680.51 2517.26,2683 2516.44,2685.43 2515.49,2687.82 2514.44,2690.14 2513.28,2692.4 2512.02,2694.6 2510.65,2696.73 2509.19,2698.78 2507.63,2700.77 2505.98,2702.67 2504.24,2704.49 1368.36,1568.61 1370.1,1566.79 1371.75,1564.88 1373.3,1562.9 1374.77,1560.84 1376.14,1558.71 1377.4,1556.52 1378.56,1554.26 1379.61,1551.93 1380.55,1549.55 1381.38,1547.12 1382.09,1544.63 1382.68,1542.09 1383.14,1539.51 1383.48,1536.89 1383.68,1534.24 "/>
     <polygon id="_275506184" class="fil1" points="1368.36,1568.61 2504.24,2704.49 2502.42,2706.23 2500.51,2707.88 2498.53,2709.44 2496.47,2710.9 2494.34,2712.27 2492.15,2713.54 2489.89,2714.7 2487.56,2715.75 2485.18,2716.69 2482.75,2717.52 2480.26,2718.23 2477.72,2718.81 2475.14,2719.28 2472.52,2719.61 2469.87,2719.82 2467.17,2719.88 1331.29,1584 1333.98,1583.93 1336.64,1583.73 1339.26,1583.39 1341.84,1582.93 1344.38,1582.34 1346.87,1581.64 1349.3,1580.81 1351.68,1579.87 1354,1578.81 1356.27,1577.65 1358.46,1576.39 1360.59,1575.02 1362.65,1573.56 1364.63,1572 1366.54,1570.35 "/>
     <polygon id="_275506280" class="fil1" points="1331.29,1584 2467.17,2719.88 1793.76,2719.88 657.876,1584 "/>
     <polygon id="_275505944" class="fil1" points="657.876,1584 1793.76,2719.88 1791.06,2719.82 1788.41,2719.61 1785.78,2719.28 1783.2,2718.81 1780.67,2718.23 1778.18,2717.52 1775.75,2716.69 1773.37,2715.75 1771.04,2714.7 1768.78,2713.54 1766.58,2712.27 1764.46,2710.9 1762.4,2709.44 1760.42,2707.88 624.536,1572 626.517,1573.56 628.575,1575.02 630.703,1576.39 632.9,1577.65 635.162,1578.81 637.484,1579.87 639.865,1580.81 642.302,1581.64 644.788,1582.34 647.324,1582.93 649.903,1583.39 652.524,1583.73 655.183,1583.93 "/>
    </g>
    <path id="_385663984" class="fil1" d="M745.416 464.001l646.783 0c13.8803,0 26.4815,5.66103 35.6008,14.7827 9.12048,9.11812 14.7827,21.7217 14.7827,35.5996l0 916.275c0,13.8768 -5.66339,26.4792 -14.7827,35.6008 -9.12166,9.1193 -21.7229,14.7815 -35.6008,14.7815l-8.44961 0 0 50.5016c0,14.4496 -5.89607,27.5693 -15.391,37.0666 -9.49725,9.49607 -22.6169,15.3921 -37.0666,15.3921l-673.415 0c-14.4496,0 -27.5717,-5.89489 -37.0666,-15.3921 -9.49607,-9.49489 -15.391,-22.6146 -15.391,-37.0666l0 -954.004c0,-14.452 5.89489,-27.5729 15.391,-37.0677 9.49489,-9.49607 22.6158,-15.391 37.0666,-15.391l37.1575 0 0 -10.6961c0,-13.8791 5.66103,-26.4815 14.7815,-35.6008 9.1193,-9.12048 21.7217,-14.7815 35.6008,-14.7815z"/>
   </g>
  </g>
  <path class="fil2" d="M1024 -0.0011811c565.541,0 1024,458.461 1024,1024 0,565.541 -458.461,1024 -1024,1024 -565.541,0 -1024,-458.461 -1024,-1024 0,-565.541 458.461,-1024 1024,-1024z"/>
  <path class="fil3" d="M745.417 464l646.782 0c13.8803,0 26.4815,5.66221 35.6008,14.7827 9.12048,9.1193 14.7827,21.7229 14.7827,35.602l0 916.274c0,13.878 -5.66339,26.4792 -14.7827,35.6008 -9.12166,9.1193 -21.7229,14.7827 -35.6008,14.7827l-646.782 0c-13.8791,0 -26.4827,-5.66221 -35.6008,-14.7827 -9.12166,-9.1193 -14.7827,-21.7205 -14.7827,-35.6008l0 -916.274c0,-13.8803 5.66103,-26.4827 14.7815,-35.602 9.1193,-9.12048 21.7217,-14.7827 35.602,-14.7827z"/>
  <path class="fil4" d="M657.876 525.08l673.415 0c14.452,0 27.5717,5.89489 37.0666,15.391 9.49607,9.49489 15.391,22.6169 15.391,37.0677l0 954.004c0,14.4496 -5.89607,27.5693 -15.391,37.0666 -9.49725,9.49607 -22.6169,15.3921 -37.0666,15.3921l-673.415 0c-14.4496,0 -27.5717,-5.89607 -37.0666,-15.3921 -9.49607,-9.49489 -15.391,-22.6146 -15.391,-37.0666l0 -954.004c0,-14.452 5.89489,-27.5729 15.3898,-37.0677 9.49607,-9.49607 22.6169,-15.391 37.0677,-15.391z"/>
  <polygon class="fil5" points="801.581,810.439 1292.61,810.439 1292.61,859.238 801.581,859.238 "/>
  <polygon class="fil5" points="801.581,956.906 1292.61,956.906 1292.61,1005.71 801.581,1005.71 "/>
  <polygon class="fil5" points="801.581,1103.37 1292.61,1103.37 1292.61,1152.17 801.581,1152.17 "/>
  <polygon class="fil5" points="801.581,1249.84 1292.61,1249.84 1292.61,1298.64 801.581,1298.64 "/>
  <polygon class="fil5" points="801.581,1396.31 1292.61,1396.31 1292.61,1445.11 801.581,1445.11 "/>
  <polygon class="fil5" points="696.557,663.97 751.236,663.97 751.236,712.77 696.557,712.77 "/>
  <polygon class="fil5" points="696.557,810.439 751.236,810.439 751.236,859.238 696.557,859.238 "/>
  <polygon class="fil5" points="696.557,1103.37 751.236,1103.37 751.236,1152.17 696.557,1152.17 "/>
  <polygon class="fil5" points="696.557,956.906 751.236,956.906 751.236,1005.71 696.557,1005.71 "/>
  <polygon class="fil5" points="696.557,1249.84 751.236,1249.84 751.236,1298.64 696.557,1298.64 "/>
  <polygon class="fil5" points="696.557,1396.31 751.236,1396.31 751.236,1445.11 696.557,1445.11 "/>
  <polygon class="fil5" points="801.581,663.97 1292.61,663.97 1292.61,712.77 801.581,712.77 "/>
 </g>
</svg>
