<?xml version="1.0" encoding="utf-8"?>
<!-- Generator: Adobe Illustrator 24.0.1, SVG Export Plug-In . SVG Version: 6.00 Build 0)  -->
<svg version="1.1" xmlns="http://www.w3.org/2000/svg" xmlns:xlink="http://www.w3.org/1999/xlink" x="0px" y="0px"
	 viewBox="0 0 177.6 215.6" style="enable-background:new 0 0 177.6 215.6;" xml:space="preserve">
<style type="text/css">
	.st0{display:none;}
	.st1{display:inline;}
	.st2{fill:#F9F1E1;}
	.st3{fill:#EAF4FE;}
	.st4{fill:none;stroke:#0561FC;stroke-width:6.8376;stroke-miterlimit:10;}
	.st5{fill:#0561FC;}
	.st6{fill:#C5E1F9;}
	.st7{fill:#7EB3FF;}
	.st8{fill:#B5D5EA;}
	.st9{fill:#E1EBF4;}
	.st10{fill:#9AC7F7;}
	.st11{fill:none;stroke:#0561FC;stroke-width:6.8376;}
	.st12{fill:none;stroke:#7EB3FF;stroke-width:6.8376;}
	.st13{fill:none;stroke:#0561FC;stroke-width:6.8376;stroke-linecap:round;}
	.st14{fill:none;stroke:#0561FC;stroke-width:7.1001;}
	.st15{fill:#B6D9EF;}
	.st16{fill:none;stroke:#9AC7F7;stroke-width:6.8376;}
	.st17{fill:none;stroke:#0561FC;stroke-width:6.8376;stroke-linejoin:bevel;}
	.st18{fill:none;stroke:#0561FC;stroke-width:6.8376;stroke-linecap:round;stroke-linejoin:round;}
	.st19{fill:none;stroke:#0561FC;stroke-width:5.0237;}
	.st20{fill:none;stroke:#0450CF;stroke-width:6.8376;}
	.st21{fill:none;stroke:#C5E1F9;stroke-width:6.8376;}
	.st22{fill:#FFBF0D;}
	.st23{fill:#B2D2EA;}
	.st24{fill:none;stroke:#0561FC;stroke-width:6.9311;}
	.st25{fill:none;stroke:#0561FC;stroke-width:6.8376;stroke-linecap:round;stroke-miterlimit:10;}
	.st26{fill:#FFFFFF;}
	.st27{fill:#FFFFFF;stroke:#0561FC;stroke-width:6.8376;}
</style>
<g id="Layer_2">
	<g class="st0">
		<g class="st1">
			<rect x="-23.2" y="-6.3" class="st2" width="218.8" height="218.8"/>
		</g>
	</g>
</g>
<g id="Layer_3">
</g>
<g id="Layer_4">
	<g>
		<g>
			<g>
				<g>
					<polygon class="st3" points="157.7,215.6 157.7,99.7 157.7,41.6 116.1,0 0,0 0,43 0,99.7 0,215.6 					"/>
					<g>
						<polygon class="st5" points="116.1,41.6 157.7,41.6 116.1,0 						"/>
						<polygon class="st6" points="157.7,41.6 116.1,41.6 157.7,83.2 						"/>
					</g>
				</g>
			</g>
		</g>
		<path class="st6" d="M177.6,179.5c0,3.8-3.1,6.8-6.8,6.8h-106c-3.8,0-6.8-3.1-6.8-6.8v-44.4c0-3.8,3.1-6.8,6.8-6.8h106
			c3.8,0,6.8,3.1,6.8,6.8V179.5z"/>
		<g>
			<line class="st11" x1="75" y1="141.9" x2="75" y2="176.1"/>
			<line class="st11" x1="143.4" y1="141.9" x2="143.4" y2="176.1"/>
			<line class="st11" x1="109.2" y1="141.9" x2="109.2" y2="176.1"/>
			<path class="st11" d="M71.6,141.9h17.1c3.8,0,6.8,3.1,6.8,6.8v3.4c0,3.8-3.1,6.8-6.8,6.8H71.6"/>
			<path class="st11" d="M105.8,141.9h17.1c3.8,0,6.8,3.1,6.8,6.8v17.1c0,3.8-3.1,6.8-6.8,6.8h-17.1"/>
			<line class="st11" x1="140" y1="141.9" x2="163.9" y2="141.9"/>
			<line class="st11" x1="140" y1="159" x2="160.5" y2="159"/>
		</g>
	</g>
</g>
</svg>
