<svg xmlns="http://www.w3.org/2000/svg" viewBox="0 0 64 64"><defs><style>.cls-1{fill:#22b573;}.cls-2{fill:#1e965c;}.cls-3{fill:#ff525e;}.cls-4{fill:#e04151;}.cls-5{fill:#fff;}.cls-6{fill:#dddbdb;}.cls-7{fill:#bab6b6;}</style></defs><title>20.Patient file</title><g id="_20.Patient_file" data-name="20.Patient file"><path class="cls-1" d="M56,28.6V50.2A7.8,7.8,0,0,1,48.2,58H15.8A7.8,7.8,0,0,1,8,50.2V20.8H48.2A7.8,7.8,0,0,1,56,28.6Z"/><path class="cls-2" d="M23.8,58h-8A7.8,7.8,0,0,1,8,50.2V20.8h8V50.2A7.8,7.8,0,0,0,23.8,58Z"/><path class="cls-3" d="M33.9,6H12.6A4.6,4.6,0,0,0,8,10.6V20.8H38.5V10.6A4.6,4.6,0,0,0,33.9,6Z"/><path class="cls-4" d="M20.5,6a4.6,4.6,0,0,0-4.6,4.6V20.8H8V10.6A4.6,4.6,0,0,1,12.6,6Z"/><rect class="cls-5" x="19.9" y="24.8" width="24.2" height="13"/><rect class="cls-6" x="19.9" y="24.8" width="5.1" height="13"/><rect class="cls-6" x="8" y="36.8" width="48" height="2"/><path class="cls-7" d="M40.2,29.9H23.8a1,1,0,1,1,0-2H40.2a1,1,0,0,1,0,2Z"/><path class="cls-7" d="M40.2,33.6H23.8a1,1,0,0,1,0-2H40.2a1,1,0,0,1,0,2Z"/></g></svg>