<?xml version="1.0" encoding="iso-8859-1"?>
<!-- Generator: Adobe Illustrator 19.0.0, SVG Export Plug-In . SVG Version: 6.00 Build 0)  -->
<svg xmlns="http://www.w3.org/2000/svg" xmlns:xlink="http://www.w3.org/1999/xlink" version="1.1" id="Layer_1" x="0px" y="0px" viewBox="0 0 512 512" style="enable-background:new 0 0 512 512;" xml:space="preserve">
<polyline style="fill:#F2C07E;" points="309.652,101.708 396.029,101.708 396.029,463.559 111.217,463.559 111.217,101.708   197.596,101.708 "/>
<path style="fill:#EA9B22;" d="M278.877,73.694c0-13.947-11.306-25.253-25.253-25.253s-25.253,11.306-25.253,25.253h-30.775v63.032  h112.057V73.694H278.877z"/>
<rect x="141.567" y="173.206" style="fill:#23CE9E;" width="50.192" height="50.192"/>
<circle style="fill:#F23488;" cx="314.548" cy="378.645" r="25.816"/>
<path d="M396.029,386.707c-4.648,0-8.415,3.767-8.415,8.415v60.024H119.632v-34.78h71.85c4.647,0,8.415-3.767,8.415-8.415  s-3.768-8.415-8.415-8.415h-71.85v-16.479H281.36c3.76,14.82,17.212,25.818,33.185,25.818c18.877,0,34.234-15.357,34.234-34.234  s-15.357-34.234-34.234-34.234c-15.974,0-29.425,10.998-33.185,25.819H119.632V110.123h49.914c4.647,0,8.415-3.767,8.415-8.415  s-3.767-8.415-8.415-8.415h-58.329c-4.647,0-8.415,3.767-8.415,8.415v268.518H53.501c-20.221,0.001-36.672-16.45-36.672-36.671  c0-20.22,16.451-36.671,36.672-36.671h29.786c4.647,0,8.415-3.767,8.415-8.415c0-4.647-3.767-8.415-8.415-8.415H53.501  C24.001,280.056,0,304.056,0,333.557c0,29.499,24.001,53.5,53.501,53.5h49.303v16.479H56.849c-4.647,0-8.415,3.767-8.415,8.415  s3.767,8.415,8.415,8.415h45.954v43.195c0,4.647,3.767,8.415,8.415,8.415h284.812c4.648,0,8.415-3.767,8.415-8.415v-68.439  C404.444,390.475,400.677,386.707,396.029,386.707z M314.545,361.237c9.597,0,17.405,7.808,17.405,17.405  c0,9.597-7.808,17.405-17.405,17.405c-9.598,0-17.406-7.808-17.406-17.405C297.139,369.045,304.948,361.237,314.545,361.237z"/>
<path d="M191.759,164.788h-50.192c-4.647,0-8.415,3.767-8.415,8.415v50.192c0,4.647,3.767,8.415,8.415,8.415h50.192  c4.647,0,8.415-3.767,8.415-8.415v-50.192C200.174,168.556,196.406,164.788,191.759,164.788z M183.345,214.981h-33.363v-33.363  h33.363L183.345,214.981L183.345,214.981z"/>
<path d="M458.5,189.885h-54.056v-18.591h49.53c4.648,0,8.415-3.767,8.415-8.415c0-4.647-3.766-8.415-8.415-8.415h-49.53v-52.757  c0-4.647-3.766-8.415-8.415-8.415h-77.963v-19.6c0-4.647-3.766-8.415-8.415-8.415h-23.426  c-3.745-14.507-16.942-25.253-32.603-25.253s-28.857,10.747-32.604,25.253h-23.425c-4.647,0-8.415,3.767-8.415,8.415v63.033  c0,4.647,3.767,8.415,8.415,8.415h112.056c4.648,0,8.415-3.767,8.415-8.415v-26.604h69.548v44.341H319.34  c-4.648,0-8.415,3.767-8.415,8.415c0,4.647,3.766,8.415,8.415,8.415h68.274v18.591H223.275c-4.647,0-8.415,3.767-8.415,8.415  s3.767,8.415,8.415,8.415h164.34v160.359c0,4.647,3.766,8.415,8.415,8.415c4.648,0,8.415-3.767,8.415-8.415V206.713H458.5  c20.22,0,36.671,16.451,36.671,36.672c0,20.22-16.45,36.671-36.671,36.671h-29.788c-4.648,0-8.415,3.767-8.415,8.415  c0,4.647,3.766,8.415,8.415,8.415H458.5c29.499,0,53.5-24.001,53.5-53.5C512,213.884,487.999,189.885,458.5,189.885z   M301.237,128.312H206.01V82.109h22.36c4.647,0,8.415-3.767,8.415-8.415c0-9.284,7.554-16.838,16.839-16.838  c9.284,0,16.838,7.554,16.838,16.838c0,4.647,3.766,8.415,8.415,8.415h22.361v46.203H301.237z"/>
<path d="M350.506,271.206c4.648,0,8.415-3.767,8.415-8.415s-3.766-8.415-8.415-8.415h-30.042c-4.648,0-8.415,3.767-8.415,8.415  s3.766,8.415,8.415,8.415H350.506z"/>
<path d="M292.415,254.377H156.741c-4.647,0-8.415,3.767-8.415,8.415s3.767,8.415,8.415,8.415h135.674  c4.648,0,8.415-3.767,8.415-8.415S297.063,254.377,292.415,254.377z"/>
<path d="M233.512,300.143c0,4.647,3.767,8.415,8.415,8.415h108.579c4.648,0,8.415-3.767,8.415-8.415  c0-4.647-3.766-8.415-8.415-8.415H241.927C237.28,291.728,233.512,295.496,233.512,300.143z"/>
<path d="M156.741,291.728c-4.647,0-8.415,3.767-8.415,8.415c0,4.647,3.767,8.415,8.415,8.415h57.138  c4.647,0,8.415-3.767,8.415-8.415c0-4.647-3.767-8.415-8.415-8.415H156.741z"/>
<g>
</g>
<g>
</g>
<g>
</g>
<g>
</g>
<g>
</g>
<g>
</g>
<g>
</g>
<g>
</g>
<g>
</g>
<g>
</g>
<g>
</g>
<g>
</g>
<g>
</g>
<g>
</g>
<g>
</g>
</svg>
