<?xml version="1.0" encoding="utf-8"?>
<!-- Generator: Adobe Illustrator 22.1.0, SVG Export Plug-In . SVG Version: 6.00 Build 0)  -->
<svg version="1.1" id="Layer_1" xmlns="http://www.w3.org/2000/svg" xmlns:xlink="http://www.w3.org/1999/xlink" x="0px" y="0px"
	 viewBox="0 0 256 256" style="enable-background:new 0 0 256 256;" xml:space="preserve">
<style type="text/css">
	.st0{fill:#D73735;}
	.st1{fill:#F85252;}
	.st2{fill:#EDAF85;}
	.st3{fill:#F7C09A;}
	.st4{fill:#D8D6D7;}
	.st5{fill:#FFFFFF;}
	.st6{fill:#1C868E;}
	.st7{fill:#40C4DF;}
	.st8{fill:#491352;}
	.st9{fill:#56C1B3;}
	.st10{fill:#7BEFE4;}
</style>
<g>
	<path class="st6" d="M227.091,59.437v189.74c0,2.76-2.23,5-5,5H33.91c-2.77,0-5-2.24-5-5v-239c0-2.76,2.23-5,5-5H173.6
		c1.34,0,2.63,0.53,3.57,1.49l48.49,49.26C226.581,56.867,227.091,58.128,227.091,59.437z"/>
	<path class="st7" d="M227.091,59.437v189.74c0,2.76-2.23,5-5,5H49.12c-2.76,0-5-2.24-5-5v-239c0-2.76,2.24-5,5-5H173.6
		c1.34,0,2.63,0.53,3.57,1.49l48.49,49.26C226.581,56.867,227.091,58.128,227.091,59.437z"/>
	<rect x="28.906" y="91.403" class="st5" width="198.188" height="122.886"/>
	<rect x="28.91" y="91.407" class="st4" width="15.21" height="122.88"/>
	<path class="st7" d="M53.903,167.28c-4.604,0-8.209,3.605-8.209,8.208s3.605,8.208,8.209,8.208c4.433,0,8.039-3.682,8.039-8.208
		S58.336,167.28,53.903,167.28z"/>
	<path class="st7" d="M136.927,118.644v64.548h13.645c0-9.221,0-55.466,0-64.548H136.927z"/>
	<path class="st7" d="M187.062,118.644h-21.9v64.548h13.645v-24.444h8.256c17.138,0,23.244-10.315,23.244-19.968
		C210.306,129.046,204.2,118.644,187.062,118.644z M184.37,146.448h-8.256v-15.504h8.256c8.312,0,9.432,3.961,9.432,7.836
		C193.802,142.351,192.73,146.448,184.37,146.448z"/>
	<polygon class="st7" points="99.767,167.157 122.164,130.978 122.164,118.902 77.602,118.902 77.602,135.12 99.686,135.12 
		77.289,171.298 77.289,183.375 122.32,183.375 122.32,167.157 	"/>
	<g>
		<path class="st8" d="M227.083,52.854l-48.49-49.267c-1.309-1.327-3.127-2.088-4.988-2.088H33.906c-3.86,0-7,3.141-7,7
			c0,10.918,0,228.901,0,239c0,3.859,3.14,7,7,7h188.188c3.859,0,7-3.141,7-7c0-8.064,0-181.467,0-189.735
			C229.094,55.916,228.38,54.172,227.083,52.854z M225.094,247.5c0,1.654-1.346,3-3,3H33.906c-1.654,0-3-1.346-3-3v-32.886h194.188
			V247.5z M225.094,210.614H30.906V91.729h194.188V210.614z M225.094,87.729H30.906V8.5c0-1.654,1.346-3,3-3h139.699
			c0.798,0,1.578,0.326,2.138,0.896l48.489,49.266c0.557,0.564,0.862,1.312,0.862,2.104V87.729z"/>
		<path class="st8" d="M53.904,185.695c5.536,0,10.039-4.579,10.039-10.208s-4.503-10.208-10.039-10.208
			c-5.725,0-10.209,4.484-10.209,10.208S48.179,185.695,53.904,185.695z M53.904,169.279c3.33,0,6.039,2.785,6.039,6.208
			s-2.709,6.208-6.039,6.208c-3.481,0-6.209-2.727-6.209-6.208S50.422,169.279,53.904,169.279z"/>
		<path class="st8" d="M136.927,185.191h13.645c1.104,0,2-0.896,2-2v-64.547c0-1.104-0.896-2-2-2h-13.645c-1.104,0-2,0.896-2,2
			v64.547C134.927,184.296,135.823,185.191,136.927,185.191z M138.927,120.645h9.645v60.547h-9.645V120.645z"/>
		<path class="st8" d="M165.161,185.191h13.645c1.104,0,2-0.896,2-2v-22.443h6.256c18.633,0,25.244-11.834,25.244-21.968
			c0-10.212-6.611-22.137-25.244-22.137h-21.9c-1.104,0-2,0.896-2,2v64.548C163.161,184.296,164.057,185.191,165.161,185.191z
			 M167.161,120.644h19.9c19.712,0,21.244,13.882,21.244,18.137c0,4.215-1.532,17.968-21.244,17.968h-8.256c-1.104,0-2,0.896-2,2
			v22.443h-9.645V120.644z"/>
		<path class="st8" d="M195.802,138.78c0-6.618-3.739-9.836-11.432-9.836h-8.256c-1.104,0-2,0.896-2,2v15.504c0,1.104,0.896,2,2,2
			h8.256C191.956,148.448,195.802,145.195,195.802,138.78z M178.115,132.944h6.256c6.863,0,7.432,2.761,7.432,5.836
			c0,2.868-0.574,5.668-7.432,5.668h-6.256V132.944z"/>
		<path class="st8" d="M77.289,185.375h45.03c1.104,0,2-0.896,2-2v-16.218c0-1.104-0.896-2-2-2h-18.962l20.507-33.126
			c0.196-0.316,0.299-0.681,0.299-1.053v-12.076c0-1.104-0.896-2-2-2H77.601c-1.104,0-2,0.896-2,2v16.218c0,1.104,0.896,2,2,2
			h18.494l-20.507,33.125c-0.196,0.316-0.299,0.681-0.299,1.053v12.077C75.289,184.479,76.185,185.375,77.289,185.375z
			 M79.289,171.867l22.097-35.694c0.382-0.617,0.399-1.393,0.046-2.026s-1.021-1.026-1.747-1.026H79.601v-12.218h40.563v9.507
			l-22.098,35.695c-0.382,0.617-0.399,1.393-0.046,2.026s1.021,1.026,1.747,1.026h20.553v12.218h-41.03V171.867z"/>
	</g>
</g>
</svg>
